<svg xmlns="http://www.w3.org/2000/svg" viewBox="0 0 886.38 403.76"><defs><style>.cls-1{fill:#5dbfc2;}.cls-2{fill:#fceedf;}.cls-3{fill:#eca758;}.cls-4{fill:#e6f3f4;}</style></defs><g id="Calque_2" data-name="Calque 2"><g id="Calque_7" data-name="Calque 7"><path class="cls-1" d="M538.69,295q0,17-17,17H447.63L462.2,126.38h73.63q16.49,0,16.48,17.07l-4.2,49.94c-1,6.59-3.15,13-6.57,15.57s-.53.49-9.62,6.11c6.4,2.64,7.87,3.36,10.23,6.48,3.72,4.92,4.6,10,3.87,17.71ZM520.85,194.93l3.84-45.2H490l-3.81,54.43h25.15Zm-10,93.65L517.56,237l-5.8-10.33H484.35L478,288.58Z"/><path class="cls-1" d="M666.2,295q0,17-16.84,17H589.13q-16.49,0-16.48-17l14.57-151.53q0-17.07,16.48-17.07h60.23q16.85,0,16.84,17.07Zm-27.74-6.87L653,150.21H615L600.4,288.11Z"/><path class="cls-1" d="M773.56,311.94H700.63L715.2,126.38H743L728.38,287.16h47.18Z"/><path class="cls-1" d="M884.38,150.92h-30.6l-14.57,161H811.59l14.57-161H795.57l2-24.54h88.81Z"/><polygon class="cls-2" points="313.85 161.82 333.81 165.42 314.85 169.31 314.84 169.31 160.89 401.17 155.79 398.51 191.91 242.15 166.78 248.57 146.81 244.97 143.41 241.01 182.23 149.5 122.76 176.28 106 173.12 102.8 172.67 24.7 108.44 25.64 103.53 313.3 0 339.24 3.6 320.17 10.46 251.11 174.69 313.85 161.82"/><path class="cls-3" d="M164.19,402.91l-5.1-2.66L214,236.5l-47.24,12.07-3.41-4,45.9-108.2L126,176.72l-3.21-.44L50.64,112.05l1-4.92L339.24,3.6l3.67,3.87L271.07,178.29l62.74-12.87,2.93,4.59Z"/><polygon class="cls-4" points="138.12 402.07 132.57 403.76 0 125.45 4.62 122.15 19.75 126.47 16.33 132.42 16.33 132.43 75.68 184.48 76.62 186.1 138.12 402.07"/><path class="cls-1" d="M138.21,402,15.14,129.78l4.61-3.31L90.81,188.8l.94,1.62,52,209.91Z"/></g></g></svg>