<svg width="418" height="600" viewBox="0 0 418 600" fill="none" xmlns="http://www.w3.org/2000/svg">
<path d="M382.5 584.5V584.5C375.833 593.814 368.054 593.022 362.096 583.241V583.241M382.5 584.5C388.378 518.375 343.585 365.69 282.343 321.138C279.828 319.309 276.965 318.104 273.953 317.328L192.357 296.298C185.371 294.498 179.243 290.067 175.297 284.027C59.4976 106.788 29.4266 38.1408 44.0028 10.6802C44.9798 8.8395 46.544 7.40583 48.2756 6.24644L49.7981 5.22708C53.0929 3.02109 57.1997 2.39903 61 3.53032V3.53032M382.5 584.5C417.864 538.478 436.049 343.014 377.848 261.041M382.5 584.5C375.833 593.814 368.054 593.022 362.096 583.241M234.41 57.4134L274.175 214.425M234.41 57.4134C231.708 46.7449 223.2 38.5251 212.445 36.1923M234.41 57.4134V57.4134C231.708 46.7449 223.2 38.5251 212.445 36.1923V36.1923M274.175 214.425C274.177 214.431 274.178 214.436 274.18 214.442M274.175 214.425L274.18 214.442M295.646 235.534L362.711 251.314M295.646 235.534C285.116 233.057 276.841 224.925 274.18 214.442M295.646 235.534V235.534C285.121 233.058 276.834 224.923 274.18 214.442V214.442M362.711 251.314C368.744 252.734 374.259 255.986 377.848 261.041M362.711 251.314V251.314C368.744 252.734 374.259 255.986 377.848 261.041V261.041M362.096 583.241L278.5 446L235.905 378.813M235.905 378.813C232.101 372.814 226.228 368.419 219.399 366.463M235.905 378.813V378.813C232.101 372.814 226.228 368.419 219.399 366.463V366.463M219.399 366.463L150.102 346.61M150.102 346.61C142.091 344.315 135.454 338.685 131.884 331.154M150.102 346.61V346.61C142.091 344.315 135.454 338.685 131.884 331.154V331.154M131.884 331.154L9.21246 72.3791M9.21246 72.3791C3.98307 61.3478 6.22217 48.2227 14.8132 39.5491M9.21246 72.3791V72.3791C3.98308 61.3478 6.22218 48.2227 14.8132 39.5491V39.5491M14.8132 39.5491L46.3003 7.34158C50.1131 3.4415 55.7725 1.97417 61 3.53032V3.53032M212.445 36.1923L61 3.53032" stroke="black" stroke-width="5"/>
<path d="M285.358 309.892L197.799 282.501C194.623 281.508 191.773 279.882 189.73 277.256C167.245 248.364 50.8276 68.0185 55.5 25.5C56.5778 16.8773 64.7805 11.0063 73.2901 12.7669L101 18.5L201.153 42.4683C211.529 44.9515 219.704 52.9316 222.436 63.245L264.722 222.854C267.37 232.848 275.139 240.677 285.113 243.402L352.5 261.812C361.029 264.142 368.088 270.224 371.31 278.458C411.345 380.777 406.891 481.986 394.046 535.241C393.024 539.475 387.375 538.811 386.9 534.482C378.733 460.086 345.588 359.192 294.632 314.933C291.944 312.598 288.757 310.955 285.358 309.892Z" fill="black"/>
</svg>
