<svg width="417" height="599" viewBox="0 0 417 599" fill="none" xmlns="http://www.w3.org/2000/svg">
<path fill-rule="evenodd" clip-rule="evenodd" d="M274.18 213.442C276.841 223.925 285.116 232.057 295.646 234.534V234.534C285.121 232.058 276.834 223.923 274.18 213.442V213.442ZM235.905 377.813V377.813C232.101 371.814 226.228 367.419 219.399 365.463V365.463C226.228 367.419 232.101 371.814 235.905 377.813Z" fill="black" fill-opacity="0.97"/>
<path d="M274.175 213.425L234.41 56.4134C231.708 45.7449 223.2 37.5251 212.445 35.1923L61 2.53032V2.53032C55.7725 0.974169 50.1131 2.4415 46.3003 6.34158L14.8132 38.5491C6.22217 47.2227 3.98307 60.3478 9.21246 71.3791L131.884 330.154C135.454 337.685 142.091 343.315 150.102 345.61L219.399 365.463V365.463C226.228 367.419 232.101 371.814 235.905 377.813V377.813L278.5 445L362.096 582.241C368.054 592.022 375.833 592.814 382.5 583.5C417.864 537.478 436.049 342.014 377.848 260.041C374.259 254.986 368.744 251.734 362.711 250.314L295.646 234.534V234.534C285.121 232.058 276.834 223.923 274.18 213.442V213.442L274.175 213.425Z" fill="black" fill-opacity="0.97"/>
<path d="M382.5 583.5V583.5C375.833 592.814 368.054 592.022 362.096 582.241V582.241M382.5 583.5C388.378 517.375 343.585 364.69 282.343 320.138C279.828 318.309 276.965 317.104 273.953 316.328L192.357 295.298C185.371 293.498 179.243 289.067 175.297 283.027C59.4976 105.788 29.4266 37.1408 44.0028 9.68018C44.9798 7.8395 46.544 6.40583 48.2756 5.24644L49.7981 4.22708C53.0929 2.02109 57.1997 1.39903 61 2.53032V2.53032M382.5 583.5C417.864 537.478 436.049 342.014 377.848 260.041M382.5 583.5C375.833 592.814 368.054 592.022 362.096 582.241M234.41 56.4134L274.175 213.425M234.41 56.4134C231.708 45.7449 223.2 37.5251 212.445 35.1923M234.41 56.4134V56.4134C231.708 45.7449 223.2 37.5251 212.445 35.1923V35.1923M274.175 213.425C274.177 213.431 274.178 213.436 274.18 213.442M274.175 213.425L274.18 213.442M295.646 234.534L362.711 250.314M295.646 234.534C285.116 232.057 276.841 223.925 274.18 213.442M295.646 234.534V234.534C285.121 232.058 276.834 223.923 274.18 213.442V213.442M362.711 250.314C368.744 251.734 374.259 254.986 377.848 260.041M362.711 250.314V250.314C368.744 251.734 374.259 254.986 377.848 260.041V260.041M362.096 582.241L278.5 445L235.905 377.813M235.905 377.813C232.101 371.814 226.228 367.419 219.399 365.463M235.905 377.813V377.813C232.101 371.814 226.228 367.419 219.399 365.463V365.463M219.399 365.463L150.102 345.61M150.102 345.61C142.091 343.315 135.454 337.685 131.884 330.154M150.102 345.61V345.61C142.091 343.315 135.454 337.685 131.884 330.154V330.154M131.884 330.154L9.21246 71.3791M9.21246 71.3791C3.98307 60.3478 6.22217 47.2227 14.8132 38.5491M9.21246 71.3791V71.3791C3.98308 60.3478 6.22218 47.2227 14.8132 38.5491V38.5491M14.8132 38.5491L46.3003 6.34158C50.1131 2.4415 55.7725 0.974169 61 2.53032V2.53032M212.445 35.1923L61 2.53032" stroke="white" stroke-width="3"/>
<path d="M285.358 308.892L197.799 281.501C194.623 280.508 191.773 278.882 189.73 276.256C167.245 247.364 50.8276 67.0185 55.5 24.5C56.5778 15.8773 64.7805 10.0063 73.2901 11.7669L101 17.5L201.153 41.4683C211.529 43.9515 219.704 51.9316 222.436 62.245L264.722 221.854C267.37 231.848 275.139 239.677 285.113 242.402L352.5 260.812C361.029 263.142 368.088 269.224 371.31 277.458C411.345 379.777 406.891 480.986 394.046 534.241C393.024 538.475 387.375 537.811 386.9 533.482C378.733 459.086 345.588 358.192 294.632 313.933C291.944 311.598 288.757 309.955 285.358 308.892Z" fill="#3050fa"/>
</svg>
