<svg xmlns="http://www.w3.org/2000/svg" viewBox="0 0 342.91 403.76"><defs><style>.cls-1{fill:#fceedf;}.cls-2{fill:#eca758;}.cls-3{fill:#e6f3f4;}.cls-4{fill:#5dbfc2;}</style></defs><g id="Calque_2" data-name="Calque 2"><g id="Calque_7" data-name="Calque 7"><polygon class="cls-1" points="313.85 161.82 333.81 165.42 314.85 169.31 314.84 169.31 160.89 401.17 155.79 398.51 191.91 242.15 166.78 248.57 146.81 244.97 143.41 241.01 182.23 149.5 122.76 176.28 106 173.12 102.8 172.67 24.7 108.44 25.64 103.53 313.3 0 339.24 3.6 320.17 10.46 251.11 174.69 313.85 161.82"/><path class="cls-2" d="M164.19,402.91l-5.1-2.66L214,236.5l-47.24,12.07-3.41-4,45.9-108.2L126,176.72l-3.21-.44L50.64,112.05l1-4.92L339.24,3.6l3.67,3.87L271.07,178.29l62.74-12.87,2.93,4.59Z"/><polygon class="cls-3" points="138.12 402.07 132.57 403.76 0 125.45 4.62 122.15 19.75 126.47 16.33 132.42 16.33 132.43 75.68 184.48 76.62 186.1 138.12 402.07"/><path class="cls-4" d="M138.21,402,15.14,129.78l4.61-3.31L90.81,188.8l.94,1.62,52,209.91Z"/></g></g></svg>
